<?xml version="1.0" encoding="utf-8"?>
<!-- Generator: Adobe Illustrator 27.5.0, SVG Export Plug-In . SVG Version: 6.00 Build 0)  -->
<svg version="1.1" id="Layer_1" xmlns="http://www.w3.org/2000/svg" xmlns:xlink="http://www.w3.org/1999/xlink" x="0px" y="0px"
	 viewBox="0 0 1200 1200" style="enable-background:new 0 0 1200 1200;" xml:space="preserve">
<g id="XMLID_1_">
	<path id="XMLID_81_" style="fill:#44C2E4;" d="M690.007,1049.365c0,25.754,21.646,46.705,48.253,46.705
		c26.607,0,48.253-20.952,48.253-46.705c0-20.194-31.495-70.265-48.253-94.688C721.502,979.1,690.007,1029.172,690.007,1049.365z"/>
	<path id="XMLID_80_" style="fill:#E6C705;" d="M373.61,697.861c0,6.955,2.568,13.519,7.154,18.576
		c4.748-3.573,10.158-6.239,15.914-7.791c1.997-12.709,8.252-24.371,17.838-33.134c0.45-0.411,0.908-0.812,1.369-1.208
		c-4.335-2.695-9.342-4.141-14.579-4.141C386.035,670.163,373.61,682.588,373.61,697.861z"/>
	<path id="XMLID_79_" style="fill:#44C2E4;" d="M709.527,184.992c0-21.895,19.807-39.709,44.152-39.709
		c5.259,0,10.358,0.811,15.211,2.416c5.026-5.147,11.561-8.862,18.781-10.766c-6.432-12.997-19.891-21.62-34.741-21.62
		c-3.158,0-6.305,0.383-9.354,1.139c-2.25,0.557-4.612-0.337-5.928-2.248c-8.008-11.633-21.206-18.579-35.303-18.579
		c-10.72,0-20.978,3.98-28.883,11.207c-7.856,7.182-12.738,16.945-13.746,27.491c-0.186,1.95-1.383,3.658-3.152,4.5
		c-0.515,0.245-1.033,0.511-1.537,0.79c-0.465,0.257-0.964,0.446-1.483,0.562c-7.212,1.609-13.762,5.663-18.446,11.413
		c-4.812,5.908-7.356,13.059-7.356,20.68c0,18.137,14.84,32.893,33.082,32.893h39.721c1.095-6.772,4.189-13.139,9.023-18.469
		C709.541,186.124,709.527,185.556,709.527,184.992z"/>
	<path id="XMLID_78_" style="fill:#E7C229;" d="M143.272,1039.853c-8.171-19.952-9.611-41.493-4.166-62.296
		c3.664-13.999,10.457-27.112,19.649-38.203c-2.609,0.795-5.187,1.713-7.726,2.753c-44.656,18.288-66.108,69.496-47.821,114.152
		c8.859,21.632,25.611,38.52,47.172,47.553c21.56,9.032,45.348,9.128,66.98,0.269c2.539-1.04,5.021-2.193,7.438-3.457
		c-14.333-1.458-28.37-6.039-40.801-13.447C165.525,1076.17,151.443,1059.805,143.272,1039.853z"/>
	<path id="XMLID_77_" style="fill:#3591A6;" d="M554.865,449.153c0-11.06-5.074-21.266-13.921-28.003
		c-0.951-0.724-1.644-1.735-1.976-2.883c-5.093-17.604-21.464-29.899-39.811-29.899c-3.379,0-6.747,0.41-10.009,1.219
		c-2.251,0.557-4.613-0.337-5.928-2.248c-8.563-12.439-22.674-19.865-37.747-19.865c-11.462,0-22.43,4.255-30.883,11.982
		c-8.4,7.679-13.62,18.118-14.697,29.395c-0.186,1.95-1.383,3.659-3.153,4.5c-0.552,0.263-1.107,0.548-1.65,0.848
		c-0.465,0.257-0.964,0.446-1.482,0.562c-7.728,1.725-14.748,6.068-19.766,12.23c-5.157,6.332-7.882,13.995-7.882,22.162
		c0,19.437,15.902,35.249,35.449,35.249h118.007C538.962,484.402,554.865,468.589,554.865,449.153z"/>
	<path id="XMLID_76_" style="fill:#44C2E4;" d="M138.373,735.689c0-21.895,19.806-39.709,44.151-39.709
		c5.26,0,10.359,0.811,15.211,2.415c5.027-5.147,11.561-8.862,18.782-10.766c-6.432-12.997-19.891-21.62-34.741-21.62
		c-3.158,0-6.305,0.384-9.354,1.14c-2.252,0.559-4.613-0.337-5.928-2.248c-8.008-11.633-21.206-18.578-35.304-18.578
		c-10.72,0-20.978,3.98-28.883,11.206c-7.856,7.182-12.738,16.945-13.746,27.491c-0.186,1.95-1.383,3.658-3.152,4.5
		c-0.512,0.243-1.03,0.51-1.538,0.791c-0.465,0.257-0.963,0.446-1.482,0.562c-7.212,1.609-13.763,5.662-18.446,11.413
		c-4.812,5.909-7.355,13.059-7.355,20.68c0,18.137,14.841,32.893,33.082,32.893h39.721c1.095-6.772,4.189-13.138,9.023-18.47
		C138.387,736.82,138.373,736.253,138.373,735.689z"/>
	<path id="XMLID_75_" style="fill:#44C2E4;" d="M834.24,421.15c-0.951-0.724-1.644-1.735-1.976-2.883
		c-5.093-17.604-21.464-29.899-39.811-29.899c-3.38,0-6.747,0.41-10.009,1.219c-2.249,0.557-4.613-0.337-5.928-2.248
		c-8.563-12.439-22.674-19.865-37.747-19.865c-11.463,0-22.43,4.255-30.883,11.982c-8.4,7.679-13.62,18.118-14.697,29.395
		c-0.186,1.95-1.384,3.659-3.153,4.5c-0.551,0.262-1.105,0.547-1.65,0.848c-0.465,0.257-0.964,0.446-1.482,0.562
		c-7.728,1.725-14.747,6.068-19.766,12.23c-5.157,6.332-7.883,13.995-7.883,22.162c0,19.437,15.903,35.249,35.45,35.249H812.71
		c19.547,0,35.45-15.813,35.45-35.249C848.16,438.093,843.086,427.886,834.24,421.15z"/>
	<path id="XMLID_74_" style="fill:#44C2E4;" d="M964.833,484.402h118.007c19.547,0,35.45-15.813,35.45-35.249
		c0-11.06-5.074-21.266-13.92-28.003c-0.951-0.724-1.644-1.735-1.976-2.883c-5.094-17.604-21.465-29.9-39.812-29.9
		c-3.38,0-6.747,0.41-10.009,1.219c-2.251,0.557-4.613-0.337-5.928-2.248c-8.562-12.439-22.673-19.865-37.747-19.865
		c-11.463,0-22.43,4.255-30.884,11.982c-8.4,7.679-13.62,18.118-14.697,29.395c-0.186,1.95-1.383,3.659-3.153,4.501
		c-0.551,0.262-1.106,0.547-1.65,0.848c-0.465,0.257-0.964,0.446-1.482,0.562c-7.728,1.725-14.748,6.068-19.766,12.23
		c-5.157,6.332-7.883,13.995-7.883,22.162C929.383,468.589,945.286,484.402,964.833,484.402z"/>
	<path id="XMLID_73_" style="fill:#44C2E4;" d="M533.215,988.268c-0.951-0.724-1.644-1.735-1.976-2.883
		c-5.093-17.604-21.464-29.899-39.811-29.899c-3.379,0-6.747,0.41-10.009,1.219c-2.251,0.558-4.613-0.337-5.928-2.248
		c-8.563-12.439-22.674-19.865-37.747-19.865c-11.462,0-22.43,4.256-30.883,11.983c-8.4,7.679-13.62,18.118-14.698,29.395
		c-0.187,1.95-1.384,3.659-3.153,4.5c-0.551,0.262-1.106,0.548-1.649,0.848c-0.465,0.257-0.964,0.446-1.482,0.562
		c-7.728,1.725-14.748,6.068-19.766,12.23c-5.157,6.332-7.883,13.995-7.883,22.162c0,19.436,15.903,35.249,35.45,35.249h118.007
		c19.547,0,35.45-15.813,35.45-35.249C547.135,1005.212,542.061,995.005,533.215,988.268z"/>
	<path id="XMLID_72_" style="fill:#E6C705;" d="M1023.837,734.019c-31.593,0-57.627,24.261-60.448,55.131h120.896
		C1081.463,758.28,1055.43,734.019,1023.837,734.019z"/>
	<path id="XMLID_71_" style="fill:#3591A6;" d="M931.631,1011.05c6.679-4.146,16.038-8.343,26.557-8.343
		c17.406,0,26.044,5.965,33.203,12.656c6.832-6.119,15.808-12.656,32.975-12.656c17.109,0,27.213,6.813,33.201,12.347
		c6.847-6.533,16.218-12.347,32.977-12.347c10.203,0,19.051,3.938,25.437,7.971c-6.699-40.011-45.469-70.795-92.145-70.795
		C977.016,939.883,938.151,970.858,931.631,1011.05z"/>
	<path id="XMLID_70_" style="fill:#3591A6;" d="M108.102,484.402h118.007c19.547,0,35.45-15.813,35.45-35.249
		c0-11.06-5.074-21.266-13.921-28.003c-0.951-0.724-1.644-1.735-1.976-2.883c-5.093-17.604-21.464-29.899-39.811-29.899
		c-3.379,0-6.747,0.41-10.009,1.219c-2.251,0.557-4.613-0.337-5.928-2.248c-8.563-12.439-22.674-19.865-37.747-19.865
		c-11.462,0-22.43,4.255-30.883,11.982c-8.4,7.679-13.62,18.118-14.697,29.395c-0.187,1.95-1.384,3.659-3.153,4.5
		c-0.552,0.263-1.107,0.548-1.649,0.848c-0.465,0.257-0.964,0.446-1.482,0.562c-7.728,1.725-14.748,6.068-19.766,12.23
		c-5.157,6.332-7.882,13.995-7.882,22.162C72.652,468.589,88.555,484.402,108.102,484.402z"/>
	<path id="XMLID_69_" style="fill:#44C2E4;" d="M986.009,203.536l24.784-72.956h31.306l-18.262,49.269h37.828l-23.055,35.158h44.23
		c19.547,0,35.45-15.813,35.45-35.249c0-11.06-5.074-21.267-13.92-28.003c-0.951-0.724-1.644-1.735-1.976-2.883
		c-5.094-17.604-21.465-29.9-39.812-29.9c-3.38,0-6.747,0.41-10.009,1.219c-2.251,0.557-4.613-0.337-5.928-2.248
		c-8.562-12.438-22.673-19.865-37.747-19.865c-11.463,0-22.431,4.256-30.884,11.982c-8.4,7.679-13.62,18.118-14.697,29.395
		c-0.186,1.951-1.384,3.66-3.154,4.501c-0.547,0.26-1.102,0.545-1.649,0.847c-0.465,0.257-0.964,0.446-1.482,0.562
		c-7.728,1.725-14.748,6.068-19.766,12.23c-5.157,6.332-7.883,13.996-7.883,22.162c0,19.436,15.903,35.249,35.45,35.249h51.562
		l2.876-11.471H986.009z"/>
	<path id="XMLID_68_" style="fill:#44C2E4;" d="M108.102,225.027h118.007c19.547,0,35.45-15.813,35.45-35.249
		c0-11.06-5.074-21.266-13.921-28.003c-0.951-0.724-1.644-1.735-1.976-2.883c-5.093-17.604-21.464-29.899-39.811-29.899
		c-3.379,0-6.747,0.41-10.009,1.219c-2.251,0.558-4.613-0.337-5.928-2.248c-8.562-12.438-22.673-19.865-37.747-19.865
		c-11.462,0-22.43,4.256-30.883,11.983c-8.4,7.679-13.62,18.118-14.697,29.395c-0.187,1.95-1.384,3.659-3.153,4.5
		c-0.552,0.263-1.107,0.548-1.649,0.848c-0.465,0.257-0.964,0.446-1.482,0.562c-7.728,1.725-14.748,6.068-19.766,12.23
		c-5.157,6.332-7.882,13.995-7.882,22.162C72.652,209.214,88.555,225.027,108.102,225.027z"/>
	<path id="XMLID_67_" style="fill:#44C2E4;" d="M548.388,161.774c-0.951-0.724-1.644-1.735-1.976-2.883
		c-5.093-17.604-21.464-29.899-39.811-29.899c-3.379,0-6.747,0.41-10.009,1.219c-2.253,0.558-4.613-0.337-5.928-2.248
		c-8.563-12.438-22.674-19.865-37.747-19.865c-11.462,0-22.43,4.256-30.883,11.983c-8.4,7.679-13.62,18.118-14.697,29.395
		c-0.186,1.95-1.384,3.659-3.153,4.5c-0.551,0.262-1.106,0.547-1.65,0.848c-0.465,0.257-0.963,0.446-1.482,0.562
		c-7.728,1.725-14.748,6.068-19.766,12.23c-5.157,6.332-7.882,13.995-7.882,22.162c0,19.437,15.903,35.249,35.45,35.249h118.007
		c19.547,0,35.45-15.813,35.45-35.249C562.308,178.718,557.235,168.511,548.388,161.774z"/>
	
		<ellipse id="XMLID_66_" transform="matrix(0.9821 -0.1882 0.1882 0.9821 -125.6564 152.1381)" style="fill:#E6C705;" cx="738.259" cy="737.717" rx="52.337" ry="52.337"/>
	<path id="XMLID_65_" style="fill:#E6C705;" d="M373.61,134.208c0,6.955,2.568,13.519,7.154,18.576
		c4.748-3.573,10.158-6.239,15.915-7.791c1.997-12.709,8.252-24.37,17.838-33.134c0.45-0.411,0.908-0.812,1.369-1.208
		c-4.335-2.695-9.342-4.141-14.579-4.141C386.035,106.51,373.61,118.935,373.61,134.208z"/>
	<path id="XMLID_64_" style="fill:#44C2E4;" d="M548.388,725.427c-0.951-0.724-1.644-1.735-1.976-2.883
		c-5.093-17.604-21.464-29.899-39.811-29.899c-3.379,0-6.747,0.41-10.009,1.219c-2.251,0.559-4.613-0.338-5.928-2.248
		c-8.563-12.439-22.674-19.865-37.747-19.865c-11.462,0-22.43,4.256-30.883,11.983c-8.4,7.679-13.62,18.118-14.697,29.395
		c-0.186,1.95-1.384,3.659-3.153,4.5c-0.551,0.262-1.106,0.548-1.65,0.848c-0.465,0.257-0.963,0.446-1.482,0.562
		c-7.728,1.725-14.748,6.068-19.766,12.23c-5.157,6.332-7.882,13.995-7.882,22.162c0,19.436,15.903,35.249,35.45,35.249h118.007
		c19.547,0,35.45-15.813,35.45-35.249C562.308,742.371,557.235,732.164,548.388,725.427z"/>
	<path id="XMLID_63_" style="fill:#44C2E4;" d="M114.322,502.287c-2.941,0.901-4.594,4.016-3.693,6.957l6.706,21.882
		c0.735,2.397,2.94,3.939,5.323,3.939c0.54,0,1.09-0.08,1.634-0.246c2.941-0.901,4.595-4.016,3.693-6.957l-6.706-21.882
		C120.378,503.039,117.263,501.385,114.322,502.287z"/>
	<path id="XMLID_62_" style="fill:#44C2E4;" d="M160.962,502.287c-2.941,0.901-4.594,4.016-3.693,6.957l6.706,21.882
		c0.735,2.397,2.94,3.939,5.323,3.939c0.54,0,1.09-0.08,1.634-0.246c2.941-0.901,4.594-4.016,3.693-6.957l-6.706-21.882
		C167.018,503.039,163.902,501.385,160.962,502.287z"/>
	<path id="XMLID_61_" style="fill:#44C2E4;" d="M207.602,502.287c-2.941,0.901-4.594,4.016-3.693,6.957l6.706,21.882
		c0.735,2.397,2.94,3.939,5.323,3.939c0.54,0,1.09-0.08,1.634-0.246c2.941-0.901,4.595-4.016,3.693-6.957l-6.706-21.882
		C213.657,503.039,210.542,501.385,207.602,502.287z"/>
	<path id="XMLID_60_" style="fill:#44C2E4;" d="M415.964,535.065c0.54,0,1.09-0.08,1.634-0.246c2.941-0.901,4.595-4.016,3.693-6.957
		l-6.706-21.882c-0.901-2.941-4.017-4.595-6.957-3.693c-2.941,0.901-4.594,4.016-3.693,6.957l6.706,21.882
		C411.376,533.524,413.581,535.065,415.964,535.065z"/>
	<path id="XMLID_59_" style="fill:#44C2E4;" d="M446.525,561.454c0.54,0,1.09-0.079,1.634-0.246
		c2.941-0.901,4.595-4.016,3.693-6.957l-6.706-21.882c-0.901-2.941-4.015-4.594-6.957-3.693c-2.941,0.901-4.595,4.016-3.693,6.957
		l6.706,21.882C441.936,559.912,444.142,561.454,446.525,561.454z"/>
	<path id="XMLID_58_" style="fill:#44C2E4;" d="M485.383,527.276c-2.941,0.901-4.595,4.016-3.693,6.957l6.706,21.882
		c0.735,2.398,2.94,3.939,5.323,3.939c0.54,0,1.09-0.08,1.634-0.246c2.941-0.901,4.595-4.016,3.693-6.957l-6.706-21.882
		C491.439,528.028,488.323,526.374,485.383,527.276z"/>
	<path id="XMLID_57_" style="fill:#44C2E4;" d="M462.604,535.065c0.54,0,1.09-0.08,1.634-0.246c2.941-0.901,4.594-4.016,3.693-6.957
		l-6.706-21.882c-0.902-2.941-4.017-4.595-6.957-3.693c-2.941,0.901-4.595,4.016-3.693,6.957l6.706,21.882
		C458.016,533.524,460.221,535.065,462.604,535.065z"/>
	<path id="XMLID_56_" style="fill:#44C2E4;" d="M509.244,535.065c0.54,0,1.09-0.08,1.634-0.246c2.941-0.901,4.595-4.016,3.693-6.957
		l-6.706-21.882c-0.901-2.941-4.016-4.595-6.957-3.693c-2.941,0.901-4.595,4.016-3.693,6.957l6.706,21.882
		C504.655,533.524,506.861,535.065,509.244,535.065z"/>
	<path id="XMLID_55_" style="fill:#E6C705;" d="M401.308,91.627c3.076,0,5.57-2.494,5.57-5.57V70.387c0-3.076-2.494-5.57-5.57-5.57
		c-3.076,0-5.57,2.494-5.57,5.57v15.671C395.738,89.133,398.232,91.627,401.308,91.627z"/>
	<path id="XMLID_54_" style="fill:#E6C705;" d="M372.409,95.293c1.032,1.787,2.904,2.786,4.829,2.786
		c0.945,0,1.902-0.241,2.78-0.747c2.664-1.538,3.577-4.944,2.039-7.608l-7.835-13.572c-1.538-2.664-4.945-3.577-7.608-2.039
		c-2.664,1.538-3.577,4.944-2.039,7.609L372.409,95.293z"/>
	<path id="XMLID_53_" style="fill:#E6C705;" d="M343.252,107.121l13.571,7.836c0.877,0.507,1.835,0.747,2.78,0.747
		c1.925,0,3.797-0.999,4.829-2.786c1.538-2.664,0.626-6.07-2.038-7.608l-13.571-7.836c-2.664-1.538-6.07-0.626-7.608,2.039
		C339.675,102.176,340.588,105.583,343.252,107.121z"/>
	<path id="XMLID_52_" style="fill:#E6C705;" d="M337.486,139.778h15.671c3.076,0,5.57-2.494,5.57-5.57s-2.494-5.57-5.57-5.57
		h-15.671c-3.076,0-5.57,2.494-5.57,5.57S334.41,139.778,337.486,139.778z"/>
	<path id="XMLID_51_" style="fill:#E6C705;" d="M364.432,155.498c-1.538-2.664-4.945-3.577-7.608-2.039l-13.571,7.836
		c-2.664,1.538-3.577,4.945-2.039,7.608c1.032,1.787,2.904,2.786,4.829,2.786c0.945,0,1.903-0.241,2.78-0.747l13.571-7.836
		C365.057,161.569,365.97,158.162,364.432,155.498z"/>
	<path id="XMLID_50_" style="fill:#E6C705;" d="M422.598,97.332c0.877,0.506,1.835,0.747,2.78,0.747
		c1.925,0,3.797-0.999,4.829-2.786l7.835-13.572c1.538-2.664,0.625-6.07-2.039-7.609c-2.665-1.538-6.07-0.625-7.609,2.039
		l-7.835,13.572C419.021,92.388,419.934,95.794,422.598,97.332z"/>
	<path id="XMLID_49_" style="fill:#44C2E4;" d="M424.567,846.965c0.54,0,1.09-0.079,1.634-0.246
		c2.941-0.902,4.595-4.016,3.693-6.957l-6.706-21.883c-0.901-2.941-4.017-4.595-6.957-3.694c-2.941,0.902-4.595,4.016-3.693,6.957
		l6.706,21.883C419.978,845.424,422.183,846.965,424.567,846.965z"/>
	<path id="XMLID_48_" style="fill:#44C2E4;" d="M471.207,846.965c0.54,0,1.09-0.079,1.634-0.246
		c2.941-0.902,4.594-4.016,3.693-6.957l-6.706-21.883c-0.901-2.941-4.016-4.595-6.957-3.694c-2.941,0.902-4.594,4.016-3.693,6.957
		l6.706,21.883C466.618,845.424,468.823,846.965,471.207,846.965z"/>
	<path id="XMLID_47_" style="fill:#44C2E4;" d="M517.847,846.965c0.54,0,1.09-0.079,1.634-0.246
		c2.941-0.902,4.595-4.016,3.693-6.957l-6.706-21.883c-0.901-2.941-4.017-4.595-6.957-3.694c-2.941,0.902-4.594,4.016-3.693,6.957
		l6.706,21.883C513.258,845.424,515.463,846.965,517.847,846.965z"/>
	<path id="XMLID_46_" style="fill:#E6C705;" d="M395.738,634.04v15.671c0,3.076,2.494,5.57,5.57,5.57c3.076,0,5.57-2.494,5.57-5.57
		V634.04c0-3.076-2.494-5.57-5.57-5.57C398.232,628.47,395.738,630.964,395.738,634.04z"/>
	<path id="XMLID_45_" style="fill:#E6C705;" d="M377.238,661.732c0.945,0,1.902-0.241,2.78-0.747
		c2.664-1.538,3.577-4.945,2.039-7.608l-7.835-13.572c-1.538-2.664-4.945-3.577-7.608-2.039c-2.664,1.538-3.577,4.945-2.039,7.608
		l7.835,13.572C373.44,660.733,375.313,661.732,377.238,661.732z"/>
	<path id="XMLID_44_" style="fill:#E6C705;" d="M362.393,668.962l-13.571-7.836c-2.664-1.538-6.07-0.625-7.608,2.039
		c-1.538,2.664-0.625,6.07,2.039,7.609l13.571,7.836c0.877,0.506,1.835,0.747,2.78,0.747c1.925,0,3.797-0.999,4.829-2.786
		C365.97,673.907,365.057,670.501,362.393,668.962z"/>
	<path id="XMLID_43_" style="fill:#E6C705;" d="M358.727,697.861c0-3.076-2.494-5.57-5.57-5.57h-15.671
		c-3.076,0-5.57,2.494-5.57,5.57c0,3.076,2.494,5.57,5.57,5.57h15.671C356.233,703.431,358.727,700.937,358.727,697.861z"/>
	<path id="XMLID_42_" style="fill:#E6C705;" d="M362.393,726.76c2.664-1.538,3.577-4.944,2.039-7.608
		c-1.538-2.664-4.945-3.577-7.608-2.039l-13.571,7.835c-2.664,1.538-3.577,4.944-2.039,7.609c1.032,1.787,2.904,2.786,4.829,2.786
		c0.945,0,1.903-0.241,2.78-0.747L362.393,726.76z"/>
	<path id="XMLID_41_" style="fill:#E6C705;" d="M422.598,660.985c0.877,0.506,1.835,0.747,2.78,0.747
		c1.925,0,3.797-0.999,4.829-2.786l7.835-13.572c1.538-2.664,0.625-6.07-2.039-7.608c-2.665-1.538-6.07-0.625-7.609,2.039
		l-7.835,13.572C419.021,656.041,419.934,659.447,422.598,660.985z"/>
	<polygon id="XMLID_40_" style="fill:#E6C705;" points="1023.837,179.849 1042.098,130.58 1010.793,130.58 986.009,203.536 
		1019.271,203.536 1016.395,215.007 1013.602,226.146 1002.64,269.859 1031.305,226.146 1038.61,215.007 1061.664,179.849 	"/>
	<path id="XMLID_39_" style="fill:#3591A6;" d="M829.695,185.928c-2.891-1.046-4.387-4.236-3.344-7.128
		c0.858-2.376,1.292-4.852,1.292-7.36c0-10.571-7.706-19.615-18.525-23.184c-3.185-1.051-6.637-1.632-10.246-1.632
		c-1.889,0-3.75,0.165-5.566,0.474c-7.428,1.264-14.056,5.023-18.371,10.591c-1.556,2.007-4.272,2.708-6.604,1.704
		c-4.577-1.97-9.508-2.969-14.653-2.969c-18.203,0-33.013,12.816-33.013,28.569c0,1.012,0.064,2.046,0.192,3.074
		c0.216,1.742-0.402,3.483-1.668,4.699c-3.683,3.54-6.17,7.818-7.286,12.397c-0.439,1.801-0.672,3.648-0.672,5.517
		c0,1.929,0.242,3.809,0.692,5.623c2.999,12.097,15.462,21.197,30.344,21.197h75.474c17.113,0,31.035-12.031,31.035-26.82
		C848.777,199.839,841.287,190.123,829.695,185.928z"/>
	<path id="XMLID_38_" style="fill:#44C2E4;" d="M105.331,840.251c0.54,0,1.09-0.079,1.634-0.246
		c2.941-0.901,4.594-4.016,3.693-6.958l-6.706-21.882c-0.901-2.941-4.016-4.594-6.957-3.693c-2.941,0.902-4.595,4.016-3.693,6.958
		l6.706,21.882C100.743,838.71,102.948,840.251,105.331,840.251z"/>
	<path id="XMLID_37_" style="fill:#44C2E4;" d="M151.971,840.251c0.54,0,1.09-0.079,1.634-0.246
		c2.941-0.901,4.595-4.016,3.693-6.958l-6.706-21.882c-0.901-2.941-4.017-4.594-6.957-3.693c-2.941,0.902-4.595,4.016-3.693,6.958
		l6.706,21.882C147.382,838.71,149.588,840.251,151.971,840.251z"/>
	<path id="XMLID_36_" style="fill:#44C2E4;" d="M198.611,840.251c0.54,0,1.09-0.079,1.634-0.246
		c2.941-0.901,4.594-4.016,3.693-6.958l-6.706-21.882c-0.902-2.941-4.016-4.594-6.957-3.693c-2.941,0.902-4.595,4.016-3.693,6.958
		l6.706,21.882C194.022,838.71,196.228,840.251,198.611,840.251z"/>
	<path id="XMLID_35_" style="fill:#3591A6;" d="M258.541,736.624c-2.89-1.046-4.387-4.236-3.343-7.127
		c0.857-2.376,1.292-4.853,1.292-7.36c0-10.571-7.707-19.615-18.526-23.184c-3.185-1.051-6.637-1.632-10.245-1.632
		c-1.889,0-3.75,0.165-5.565,0.474c-7.428,1.264-14.056,5.023-18.371,10.591c-1.555,2.007-4.272,2.707-6.604,1.704
		c-4.577-1.97-9.507-2.969-14.653-2.969c-18.203,0-33.012,12.816-33.012,28.569c0,1.012,0.064,2.047,0.192,3.073
		c0.216,1.742-0.403,3.483-1.668,4.699c-3.683,3.54-6.171,7.818-7.286,12.397c-0.439,1.801-0.672,3.648-0.672,5.517
		c0,1.928,0.242,3.808,0.692,5.623c2.999,12.097,15.462,21.197,30.343,21.197h75.474c17.113,0,31.035-12.031,31.035-26.82
		C277.622,750.535,270.133,740.82,258.541,736.624z"/>
	<path id="XMLID_34_" style="fill:#E6C705;" d="M732.69,661.693c0,3.076,2.494,5.57,5.57,5.57c3.076,0,5.57-2.494,5.57-5.57v-23.593
		c0-3.076-2.494-5.57-5.57-5.57c-3.076,0-5.57,2.494-5.57,5.57V661.693z"/>
	<path id="XMLID_33_" style="fill:#E6C705;" d="M732.69,813.74v23.594c0,3.076,2.494,5.57,5.57,5.57c3.076,0,5.57-2.494,5.57-5.57
		V813.74c0-3.076-2.494-5.57-5.57-5.57C735.184,808.171,732.69,810.665,732.69,813.74z"/>
	<path id="XMLID_32_" style="fill:#E6C705;" d="M700.253,677.449c0.945,0,1.903-0.241,2.78-0.747
		c2.664-1.538,3.577-4.945,2.039-7.609l-11.797-20.433c-1.538-2.664-4.945-3.576-7.608-2.039c-2.664,1.538-3.577,4.945-2.039,7.608
		l11.797,20.433C696.456,676.45,698.327,677.449,700.253,677.449z"/>
	<path id="XMLID_31_" style="fill:#E6C705;" d="M773.486,798.732c-2.664,1.538-3.577,4.945-2.039,7.608l11.797,20.433
		c1.032,1.787,2.904,2.786,4.829,2.786c0.945,0,1.903-0.241,2.78-0.747c2.664-1.538,3.577-4.945,2.039-7.609l-11.797-20.433
		C779.557,798.107,776.15,797.194,773.486,798.732z"/>
	<path id="XMLID_30_" style="fill:#E6C705;" d="M647.164,685.123c-1.538,2.664-0.625,6.071,2.039,7.609l20.433,11.797
		c0.877,0.506,1.835,0.747,2.78,0.747c1.924,0,3.797-0.999,4.829-2.786c1.538-2.664,0.625-6.071-2.039-7.608l-20.433-11.797
		C652.109,681.547,648.702,682.459,647.164,685.123z"/>
	<path id="XMLID_29_" style="fill:#E6C705;" d="M827.315,782.702l-20.433-11.797c-2.663-1.537-6.07-0.625-7.609,2.039
		c-1.538,2.664-0.625,6.07,2.039,7.609l20.433,11.797c0.877,0.506,1.835,0.747,2.78,0.747c1.925,0,3.797-0.999,4.829-2.786
		C830.892,787.646,829.979,784.24,827.315,782.702z"/>
	<path id="XMLID_28_" style="fill:#E6C705;" d="M667.805,737.717c0-3.076-2.494-5.57-5.57-5.57h-23.593
		c-3.076,0-5.57,2.494-5.57,5.57c0,3.076,2.494,5.57,5.57,5.57h23.593C665.311,743.287,667.805,740.793,667.805,737.717z"/>
	<path id="XMLID_27_" style="fill:#E6C705;" d="M837.877,732.147h-23.594c-3.076,0-5.57,2.494-5.57,5.57
		c0,3.076,2.494,5.57,5.57,5.57h23.594c3.076,0,5.57-2.494,5.57-5.57C843.447,734.641,840.953,732.147,837.877,732.147z"/>
	<path id="XMLID_26_" style="fill:#E6C705;" d="M669.636,770.905l-20.433,11.797c-2.664,1.538-3.577,4.945-2.039,7.609
		c1.032,1.787,2.904,2.786,4.829,2.786c0.945,0,1.903-0.241,2.78-0.747l20.433-11.797c2.664-1.538,3.577-4.945,2.039-7.609
		C675.706,770.279,672.299,769.367,669.636,770.905z"/>
	<path id="XMLID_25_" style="fill:#E6C705;" d="M821.746,683.085l-20.433,11.797c-2.664,1.538-3.577,4.945-2.039,7.608
		c1.032,1.787,2.904,2.786,4.829,2.786c0.945,0,1.903-0.241,2.78-0.747l20.433-11.797c2.664-1.538,3.577-4.945,2.039-7.609
		C827.816,682.459,824.409,681.547,821.746,683.085z"/>
	<path id="XMLID_24_" style="fill:#E6C705;" d="M695.424,800.77l-11.797,20.433c-1.538,2.664-0.625,6.071,2.039,7.609
		c0.877,0.506,1.835,0.747,2.78,0.747c1.924,0,3.797-0.999,4.829-2.786l11.797-20.433c1.538-2.664,0.625-6.071-2.039-7.608
		C700.369,797.194,696.962,798.106,695.424,800.77z"/>
	<path id="XMLID_23_" style="fill:#E6C705;" d="M773.486,676.702c0.877,0.506,1.835,0.747,2.78,0.747
		c1.925,0,3.797-0.999,4.829-2.786l11.797-20.433c1.538-2.664,0.625-6.07-2.039-7.608c-2.663-1.537-6.071-0.625-7.608,2.039
		l-11.797,20.433C769.91,671.757,770.822,675.163,773.486,676.702z"/>
	<path id="XMLID_22_" style="fill:#E6C705;" d="M1018.267,680.714v27.001c0,3.076,2.494,5.57,5.57,5.57
		c3.076,0,5.57-2.494,5.57-5.57v-27.001c0-3.076-2.494-5.57-5.57-5.57C1020.761,675.144,1018.267,677.638,1018.267,680.714z"/>
	<path id="XMLID_21_" style="fill:#E6C705;" d="M964.049,691.164c-2.664,1.538-3.577,4.945-2.039,7.609l13.501,23.384
		c1.032,1.787,2.904,2.786,4.829,2.786c0.945,0,1.903-0.241,2.78-0.747c2.664-1.538,3.577-4.945,2.039-7.609l-13.5-23.384
		C970.12,690.539,966.713,689.627,964.049,691.164z"/>
	<path id="XMLID_20_" style="fill:#E6C705;" d="M951.273,746.394l-23.384-13.5c-2.663-1.537-6.071-0.625-7.609,2.039
		c-1.538,2.664-0.625,6.071,2.039,7.609l23.384,13.5c0.877,0.506,1.835,0.747,2.78,0.747c1.924,0,3.797-0.999,4.829-2.786
		C954.85,751.338,953.937,747.932,951.273,746.394z"/>
	<path id="XMLID_19_" style="fill:#E6C705;" d="M942.402,794.72c0-3.076-2.494-5.57-5.57-5.57h-27.001
		c-3.076,0-5.57,2.494-5.57,5.57c0,3.076,2.494,5.57,5.57,5.57h27.001C939.908,800.289,942.402,797.796,942.402,794.72z"/>
	<path id="XMLID_18_" style="fill:#E6C705;" d="M1137.843,789.15h-27.001c-3.076,0-5.57,2.494-5.57,5.57
		c0,3.076,2.494,5.57,5.57,5.57h27.001c3.076,0,5.57-2.494,5.57-5.57C1143.412,791.644,1140.918,789.15,1137.843,789.15z"/>
	<path id="XMLID_17_" style="fill:#E6C705;" d="M1101.969,756.041l23.384-13.5c2.664-1.538,3.577-4.945,2.039-7.609
		c-1.538-2.664-4.945-3.577-7.609-2.039l-23.384,13.5c-2.664,1.538-3.577,4.945-2.039,7.609c1.032,1.787,2.904,2.786,4.829,2.786
		C1100.135,756.788,1101.092,756.547,1101.969,756.041z"/>
	<path id="XMLID_16_" style="fill:#E6C705;" d="M1064.554,724.195c0.877,0.506,1.835,0.747,2.78,0.747
		c1.925,0,3.797-0.999,4.829-2.786l13.501-23.384c1.538-2.664,0.625-6.07-2.039-7.609c-2.663-1.537-6.07-0.625-7.608,2.039
		l-13.501,23.384C1060.977,719.25,1061.89,722.657,1064.554,724.195z"/>
	<polygon id="XMLID_15_" style="fill:#44C2E4;" points="188.303,1031.831 184.413,1046.35 198.304,1040.606 210.91,1048.792 
		209.74,1033.807 221.421,1024.347 206.807,1020.829 201.421,1006.797 193.559,1019.608 178.548,1020.395 	"/>
	<polygon id="XMLID_14_" style="fill:#44C2E4;" points="229.276,973.439 223.527,965.711 220.89,974.975 211.764,978.054 
		219.759,983.425 219.868,993.057 227.447,987.112 236.64,989.985 233.329,980.94 238.902,973.084 	"/>
	<path id="XMLID_13_" style="fill:#44C2E4;" d="M965.379,507.612c-6.948,0-12.58,5.632-12.58,12.58c0,6.948,5.632,12.58,12.58,12.58
		s12.58-5.632,12.58-12.58C977.959,513.244,972.327,507.612,965.379,507.612z"/>
	<circle id="XMLID_12_" style="fill:#44C2E4;" cx="1023.107" cy="520.192" r="12.58"/>
	<circle id="XMLID_11_" style="fill:#44C2E4;" cx="1077.653" cy="520.192" r="12.58"/>
	<path id="XMLID_10_" style="fill:#44C2E4;" d="M690.96,507.612c-2.746,0-4.972,2.226-4.972,4.972v7.661l-8.145-2.207
		c-2.651-0.719-5.381,0.848-6.1,3.498c-0.718,2.651,0.848,5.381,3.499,6.1l7.835,2.123l-4.735,7.298
		c-1.495,2.304-0.839,5.383,1.465,6.877c0.836,0.543,1.774,0.802,2.702,0.802c1.628,0,3.224-0.799,4.176-2.266l4.348-6.702
		l4.711,7.012c0.96,1.429,2.531,2.2,4.132,2.2c0.953,0,1.918-0.274,2.768-0.845c2.28-1.531,2.886-4.621,1.355-6.9l-5.042-7.505
		l7.722-2.093c2.65-0.718,4.217-3.449,3.498-6.1c-0.718-2.65-3.447-4.216-6.1-3.498l-8.144,2.207v-7.661
		C695.932,509.838,693.706,507.612,690.96,507.612z"/>
	<path id="XMLID_9_" style="fill:#44C2E4;" d="M753.707,507.612c-2.746,0-4.972,2.226-4.972,4.972v7.661l-8.145-2.207
		c-2.651-0.719-5.382,0.848-6.1,3.498c-0.718,2.651,0.848,5.381,3.498,6.1l7.835,2.123l-4.735,7.298
		c-1.495,2.304-0.839,5.383,1.465,6.877c0.836,0.543,1.774,0.802,2.702,0.802c1.628,0,3.224-0.799,4.176-2.266l4.348-6.702
		l4.711,7.012c0.96,1.429,2.531,2.2,4.132,2.2c0.953,0,1.918-0.274,2.768-0.845c2.28-1.531,2.886-4.621,1.355-6.9l-5.042-7.505
		l7.722-2.093c2.65-0.718,4.217-3.449,3.498-6.1c-0.718-2.65-3.447-4.216-6.1-3.498l-8.144,2.207v-7.661
		C758.679,509.838,756.453,507.612,753.707,507.612z"/>
	<path id="XMLID_8_" style="fill:#44C2E4;" d="M816.455,507.612c-2.746,0-4.972,2.226-4.972,4.972v7.661l-8.144-2.207
		c-2.651-0.719-5.382,0.848-6.1,3.498c-0.718,2.651,0.848,5.381,3.498,6.1l7.835,2.123l-4.735,7.298
		c-1.495,2.304-0.839,5.383,1.465,6.877c0.836,0.543,1.774,0.802,2.702,0.802c1.628,0,3.224-0.799,4.176-2.266l4.348-6.702
		l4.711,7.012c0.96,1.429,2.531,2.2,4.132,2.2c0.953,0,1.918-0.274,2.768-0.845c2.279-1.531,2.886-4.621,1.355-6.9l-5.042-7.505
		l7.723-2.093c2.65-0.718,4.217-3.449,3.498-6.1c-0.718-2.65-3.447-4.216-6.1-3.498l-8.144,2.207v-7.661
		C821.427,509.838,819.201,507.612,816.455,507.612z"/>
	<path id="XMLID_7_" style="fill:#44C2E4;" d="M531.727,1075.519c0-3.076-2.494-5.57-5.57-5.57H379.884
		c-3.076,0-5.57,2.494-5.57,5.57s2.494,5.57,5.57,5.57h146.272C529.233,1081.089,531.727,1078.595,531.727,1075.519z"/>
	<path id="XMLID_6_" style="fill:#44C2E4;" d="M518.098,1115.745H371.826c-3.076,0-5.57,2.494-5.57,5.57
		c0,3.076,2.494,5.57,5.57,5.57h146.272c3.076,0,5.57-2.494,5.57-5.57C523.668,1118.239,521.174,1115.745,518.098,1115.745z"/>
	<path id="XMLID_5_" style="fill:#44C2E4;" d="M404.947,1093.157c-3.076,0-5.57,2.494-5.57,5.57c0,3.076,2.494,5.57,5.57,5.57
		h53.606c3.076,0,5.57-2.494,5.57-5.57c0-3.076-2.494-5.57-5.57-5.57H404.947z"/>
	<path id="XMLID_4_" style="fill:#44C2E4;" d="M543.486,1093.157h-53.606c-3.076,0-5.57,2.494-5.57,5.57
		c0,3.076,2.494,5.57,5.57,5.57h53.606c3.076,0,5.57-2.494,5.57-5.57C549.056,1095.65,546.562,1093.157,543.486,1093.157z"/>
	<path id="XMLID_3_" style="fill:#3591A6;" d="M1018.267,1014.201v85.468c0,9.242,2.873,17.984,8.09,24.617
		c5.526,7.027,12.996,10.897,21.031,10.897c8.035,0,15.505-3.87,21.031-10.897c5.217-6.633,8.09-15.376,8.09-24.617
		c0-3.076-2.494-5.57-5.57-5.57s-5.57,2.494-5.57,5.57c0,13.44-8.067,24.375-17.982,24.375c-9.915,0-17.982-10.934-17.982-24.375
		v-85.57c-1.583-0.162-3.257-0.252-5.041-0.252C1022.145,1013.847,1020.125,1013.972,1018.267,1014.201z"/>
	<path id="XMLID_2_" style="fill:#3591A6;" d="M1029.406,928.879v-11.904c0-3.076-2.494-5.57-5.57-5.57
		c-3.076,0-5.57,2.494-5.57,5.57v11.904c1.848-0.087,3.705-0.135,5.57-0.135C1025.701,928.744,1027.558,928.791,1029.406,928.879z"
		/>
</g>
</svg>
